<?xml version="1.0" encoding="UTF-8" standalone="no"?>
<!-- Created with Inkscape (http://www.inkscape.org/) -->

<svg
   width="70mm"
   height="80mm"
   viewBox="0 0 70 80"
   version="1.1"
   id="svg1"
   inkscape:version="1.3.2 (091e20e, 2023-11-25)"
   sodipodi:docname="CubeLogo.svg"
   xmlns:inkscape="http://www.inkscape.org/namespaces/inkscape"
   xmlns:sodipodi="http://sodipodi.sourceforge.net/DTD/sodipodi-0.dtd"
   xmlns="http://www.w3.org/2000/svg"
   xmlns:svg="http://www.w3.org/2000/svg">
  <sodipodi:namedview
     id="namedview1"
     pagecolor="#ffffff"
     bordercolor="#cccccc"
     borderopacity="1"
     inkscape:showpageshadow="0"
     inkscape:pageopacity="1"
     inkscape:pagecheckerboard="0"
     inkscape:deskcolor="#d1d1d1"
     inkscape:document-units="mm"
     showgrid="true"
     inkscape:zoom="1"
     inkscape:cx="77.5"
     inkscape:cy="222"
     inkscape:window-width="1408"
     inkscape:window-height="847"
     inkscape:window-x="0"
     inkscape:window-y="25"
     inkscape:window-maximized="0"
     inkscape:current-layer="layer1">
    <inkscape:grid
       type="axonomgrid"
       id="grid1"
       units="mm"
       originx="0"
       originy="0"
       spacingx="0"
       spacingy="1"
       empcolor="#0099e5"
       empopacity="0.30196078"
       color="#0099e5"
       opacity="0.14901961"
       empspacing="5"
       dotted="true"
       gridanglex="30"
       gridanglez="30"
       visible="true"
       enabled="true" />
  </sodipodi:namedview>
  <defs
     id="defs1" />
  <g
     inkscape:label="Layer 1"
     inkscape:groupmode="layer"
     id="layer1">
    <path
       style="fill:#efefef;stroke-width:0.264583"
       d="m 8.6602537,24.999999 v 9.999999"
       id="path1" />
    <path
       style="fill:#efefef;stroke-width:0.264583"
       d="M 17.320507,39.999999 8.6602537,34.999998"
       id="path2" />
    <path
       style="fill:#ffff00;stroke-width:0.264583;stroke:#000000"
       d="m 8.6602537,34.999998 v -9.999999 l 8.6602543,5 v 10 z"
       id="path3" />
    <path
       style="fill:#0000ff;stroke-width:0.264583;stroke:#000000"
       d="m 8.6602537,34.999998 v 10.000001 l 8.6602543,5 v -10 z"
       id="path4" />
    <path
       style="fill:#efefef;fill-opacity:1;stroke-width:0.264583;stroke:#000000"
       d="m 8.6602537,44.999999 v 9.999999 l 8.6602543,5 v -9.999999 z"
       id="path5" />
    <path
       style="fill:#efefef;fill-opacity:1;stroke-width:0.264583;stroke:#000000"
       d="m 17.320507,29.999998 v 10.000001 l 8.660254,5 v -10"
       id="path6" />
    <path
       style="fill:#ff0000;fill-opacity:1;stroke-width:0.264583;stroke:#000000"
       d="m 17.320507,49.999997 8.660254,5.000001 v -9.999999 l -8.660253,-5 z"
       id="path7" />
    <path
       style="fill:#00bf00;fill-opacity:1;stroke-width:0.264583;stroke:#000000"
       d="m 17.320507,49.999997 v 10.000001 l 8.660254,5 v -10"
       id="path8" />
    <path
       style="fill:#ff0000;fill-opacity:1;stroke-width:0.264583;stroke:#000000"
       d="m 25.980761,34.999998 v 10.000001 l 8.660254,5 v -10 z"
       id="path9" />
    <path
       style="fill:#efefef;fill-opacity:1;stroke-width:0.264583;stroke:#000000"
       d="m 34.641014,59.999998 -8.660253,-5 v -9.999999 l 8.660254,5 z"
       id="path10" />
    <path
       style="fill:#efefef;fill-opacity:1;stroke-width:0.264583"
       d="m 34.641014,69.056249 4.330129,-1.556253"
       id="path13" />
    <path
       style="fill:#0000ff;fill-opacity:1;stroke-width:0.264583;stroke:#000000"
       d="m 25.980761,64.999996 v -9.999998 l 8.660254,5 v 10 z"
       id="path14" />
    <path
       style="fill:#00bf00;fill-opacity:1;stroke-width:0.264583;stroke:#000000"
       d="m 8.6602537,24.999999 8.6602543,-5.156249 8.660253,5.156249 -8.660253,5 z"
       id="path15" />
    <path
       style="fill:#ff0000;fill-opacity:1;stroke-width:0.264583;stroke:#000000"
       d="m 17.320507,29.999998 8.660254,5 8.660254,-4.999999 -8.660254,-5 z"
       id="path16" />
    <path
       style="fill:#0000ff;fill-opacity:1;stroke-width:0.264583;stroke:#000000"
       d="m 25.980761,34.999998 8.660253,5.000001 8.660255,-5 -8.660254,-5 z"
       id="path17" />
    <path
       style="fill:#0000ff;fill-opacity:1;stroke-width:0.264583;stroke:#000000"
       d="m 17.320508,19.84375 8.660253,5.156249 8.660254,-5 -8.660254,-4.918749"
       id="path18" />
    <path
       style="fill:#0000ff;fill-opacity:1;stroke-width:0.264583;stroke:#000000"
       d="m 25.980761,24.999999 8.660253,4.999999 8.660255,-4.999999 -8.660254,-5"
       id="path19" />
    <path
       style="fill:#0000ff;fill-opacity:1;stroke-width:0.264583"
       d="m 43.301269,34.999998 v 0"
       id="path20" />
    <path
       style="fill:#ff0000;fill-opacity:1;stroke-width:0.264583;stroke:#000000"
       d="m 43.301269,34.999998 -8.660255,-5 8.660255,-4.999999 8.660254,5 z"
       id="path21" />
    <path
       style="fill:#ffffff;fill-opacity:1;stroke-width:0.264583"
       d="M 25.980761,15.08125 34.641014,19.999999 43.301269,15 34.641015,9.7895833"
       id="path22" />
    <path
       style="fill:#ff7f00;fill-opacity:1;stroke-width:0.264583;stroke:#000000"
       d="m 25.980761,14.999999 8.660253,5 L 43.301269,15 34.641015,9.7895833"
       id="path23" />
    <path
       style="fill:#ffff00;fill-opacity:1;stroke-width:0.264583;stroke:#000000"
       d="m 34.641014,19.999999 8.660255,5 8.660254,-5 L 43.301269,15 Z"
       id="path24" />
    <path
       style="fill:#ff0000;fill-opacity:1;stroke-width:0.264583;stroke:#000000"
       d="m 43.301269,24.999999 8.660254,4.999999 8.660254,-4.999999 -8.660254,-5"
       id="path25" />
    <path
       style="fill:#ffff00;fill-opacity:1;stroke-width:0.264583;stroke:#000000"
       d="m 34.641014,49.999997 8.660255,-4.999998 v -10 l -8.660254,5 z"
       id="path26" />
    <path
       style="fill:#ff7f00;fill-opacity:1;stroke-width:0.264583;stroke:#000000"
       d="m 34.641014,49.999997 v 10.000001 l 8.660255,-5 v -9.999999 z"
       id="path27" />
    <path
       style="fill:#ff7f00;fill-opacity:1;stroke-width:0.264583;stroke:#000000"
       d="m 34.641014,59.999998 v 9.999999 l 8.660255,-4.999999 v -10"
       id="path28" />
    <path
       style="fill:#0000ff;fill-opacity:1;stroke-width:0.264583;stroke:#000000"
       d="m 43.301269,34.999998 v 10.000001 l 8.660254,-5 v -10"
       id="path29" />
    <path
       style="fill:#ffff00;fill-opacity:1;stroke-width:0.264583;stroke:#000000"
       d="m 43.301269,44.999999 v 9.999999 l 8.660254,-4.999999 v -10"
       id="path30" />
    <path
       style="fill:#00bf00;fill-opacity:1;stroke-width:0.264583;stroke:#000000"
       d="m 43.301269,54.999998 v 9.999998 l 8.660254,-4.999998 v -9.999999 z"
       id="path31" />
    <path
       style="fill:#00ff00;fill-opacity:1;stroke-width:0.264583"
       d="M 51.961523,29.999998 V 39.999999"
       id="path32" />
    <path
       style="fill:#00bf00;fill-opacity:1;stroke-width:0.264583;stroke:#000000"
       d="m 51.961523,39.999999 8.660254,-5.000001 v -9.999999 l -8.660254,5"
       id="path33" />
    <path
       style="fill:#efefef;fill-opacity:1;stroke-width:0.264583;stroke:#000000"
       d="m 51.961523,59.999998 8.660254,-5 v -9.999999 l -8.660254,5"
       id="path34" />
    <path
       style="fill:#ffff00;fill-opacity:1;stroke-width:0.264583;stroke:#000000"
       d="m 51.961523,39.999999 v 9.999998 l 8.660254,-4.999998 v -10"
       id="path36" />
    <path
       style="fill:#ffff00;fill-opacity:1;stroke-width:0.264583"
       d="m 160.21469,-27.499998 4.33013,-7.5"
       id="path37" />
  </g>
</svg>
